<svg width="20" height="22" viewBox="0 0 20 22" fill="none" xmlns="http://www.w3.org/2000/svg">
<path d="M8 7.91257C8 6.808 8.89543 5.91257 10 5.91257C11.1046 5.91257 12 6.808 12 7.91257C12 8.31072 11.8837 8.6817 11.6831 8.99336C11.0854 9.92224 10 10.808 10 11.9126V12.4126M10 14.9126V15.9126M1 8.04452V13.7807C1 15.304 1.7923 16.7116 3.07846 17.4733L7.92154 20.3414C9.20769 21.103 10.7923 21.103 12.0785 20.3414L16.9215 17.4733C18.2077 16.7116 19 15.304 19 13.7807V8.04452C19 6.5212 18.2077 5.11358 16.9215 4.35192L12.0785 1.48384C10.7923 0.722182 9.20769 0.722182 7.92154 1.48384L3.07846 4.35192C1.7923 5.11358 1 6.5212 1 8.04452Z" stroke="white" stroke-width="1.5" stroke-linecap="round"/>
</svg>
