<svg width="21" height="22" viewBox="0 0 21 22" fill="none" xmlns="http://www.w3.org/2000/svg">
<path d="M7.29263 6.88948C7.06482 7.11729 7.06482 7.48665 7.29263 7.71446C7.52045 7.94227 7.8898 7.94227 8.11761 7.71446L7.29263 6.88948ZM11.9968 5.7602L11.5843 6.17269L11.5843 6.17269L11.9968 5.7602ZM13.1261 7.71446C13.3539 7.94227 13.7233 7.94227 13.9511 7.71446C14.1789 7.48665 14.1789 7.11729 13.9511 6.88948L13.1261 7.71446ZM11.2052 5.35748C11.2052 5.03531 10.944 4.77414 10.6219 4.77414C10.2997 4.77414 10.0385 5.03531 10.0385 5.35748H11.2052ZM10.0385 10.2187C10.0385 10.5409 10.2997 10.802 10.6219 10.802C10.944 10.802 11.2052 10.5409 11.2052 10.2187H10.0385ZM6.34398 12.941L5.8773 13.291L5.8773 13.291L6.34398 12.941ZM7.51067 14.4966L7.97735 14.1466L7.97735 14.1466L7.51067 14.4966ZM13.733 14.4966L13.2664 14.1466L13.2664 14.1466L13.733 14.4966ZM14.8997 12.941L14.4331 12.591L14.4331 12.591L14.8997 12.941ZM8.11761 7.71446L9.65938 6.17269L8.83441 5.34771L7.29263 6.88948L8.11761 7.71446ZM11.5843 6.17269L13.1261 7.71446L13.9511 6.88948L12.4093 5.34771L11.5843 6.17269ZM10.0385 5.35748V10.2187H11.2052V5.35748H10.0385ZM9.65938 6.17269C10.1909 5.64113 11.0528 5.64113 11.5843 6.17269L12.4093 5.34771C11.4221 4.36053 9.82159 4.36053 8.83441 5.34771L9.65938 6.17269ZM19.761 15.0799V17.9967H20.9276V15.0799H19.761ZM17.4276 20.33H3.81615V21.4967H17.4276V20.33ZM1.48276 17.9967V15.0799H0.316068V17.9967H1.48276ZM3.81615 12.7465H4.78839V11.5798H3.81615V12.7465ZM5.8773 13.291L7.044 14.8466L7.97735 14.1466L6.81066 12.591L5.8773 13.291ZM16.4553 12.7465H17.4276V11.5798H16.4553V12.7465ZM14.1997 14.8466L15.3664 13.291L14.4331 12.591L13.2664 14.1466L14.1997 14.8466ZM10.6219 16.6355C12.0296 16.6355 13.3551 15.9727 14.1997 14.8466L13.2664 14.1466C12.6421 14.9789 11.6623 15.4688 10.6219 15.4688V16.6355ZM16.4553 11.5798C15.6597 11.5798 14.9104 11.9545 14.4331 12.591L15.3664 13.291C15.6235 12.9483 16.0269 12.7465 16.4553 12.7465V11.5798ZM7.044 14.8466C7.88861 15.9727 9.21416 16.6355 10.6219 16.6355V15.4688C9.58138 15.4688 8.60163 14.9789 7.97735 14.1466L7.044 14.8466ZM4.78839 12.7465C5.21682 12.7465 5.62025 12.9483 5.8773 13.291L6.81066 12.591C6.33327 11.9545 5.58405 11.5798 4.78839 11.5798V12.7465ZM3.81615 20.33C2.52745 20.33 1.48276 19.2853 1.48276 17.9967H0.316068C0.316068 19.9297 1.88311 21.4967 3.81615 21.4967V20.33ZM19.761 17.9967C19.761 19.2853 18.7163 20.33 17.4276 20.33V21.4967C19.3606 21.4967 20.9276 19.9297 20.9276 17.9967H19.761ZM20.9276 15.0799C20.9276 13.1469 19.3606 11.5798 17.4276 11.5798V12.7465C18.7163 12.7465 19.761 13.7912 19.761 15.0799H20.9276ZM1.48276 15.0799C1.48276 13.7912 2.52745 12.7465 3.81615 12.7465V11.5798C1.88311 11.5798 0.316068 13.1469 0.316068 15.0799H1.48276ZM18.9832 12.1632V5.35748H17.8165V12.1632H18.9832ZM14.5108 0.885159H6.73288V2.05185H14.5108V0.885159ZM2.26056 5.35748V12.1632H3.42725V5.35748H2.26056ZM6.73288 0.885159C4.26288 0.885159 2.26056 2.88749 2.26056 5.35748H3.42725C3.42725 3.53183 4.90723 2.05185 6.73288 2.05185V0.885159ZM18.9832 5.35748C18.9832 2.88749 16.9808 0.885159 14.5108 0.885159V2.05185C16.3365 2.05185 17.8165 3.53183 17.8165 5.35748H18.9832Z" fill="white"/>
</svg>
