<svg width="21" height="20" viewBox="0 0 21 20" fill="none" xmlns="http://www.w3.org/2000/svg">
<path d="M9.59896 1.60938C5.46669 1.60938 2.10059 4.97548 2.10059 9.10776C2.10059 13.24 5.46669 16.6127 9.59896 16.6127C11.364 16.6127 12.9872 15.9941 14.2702 14.9671L17.3936 18.0889C17.5512 18.24 17.7617 18.3233 17.98 18.3211C18.1984 18.3189 18.4071 18.2312 18.5616 18.0769C18.7161 17.9227 18.8041 17.714 18.8066 17.4957C18.8091 17.2774 18.7261 17.0667 18.5752 16.9089L15.4518 13.7856C16.4797 12.5006 17.099 10.8748 17.099 9.10776C17.099 4.97548 13.7312 1.60938 9.59896 1.60938ZM9.59896 3.27607C12.8305 3.27607 15.4307 5.87623 15.4307 9.10776C15.4307 12.3393 12.8305 14.946 9.59896 14.946C6.36743 14.946 3.76725 12.3393 3.76725 9.10776C3.76725 5.87623 6.36743 3.27607 9.59896 3.27607Z" fill="#B1B1B1"/>
</svg>
