<svg width="20" height="22" viewBox="0 0 20 22" fill="none" xmlns="http://www.w3.org/2000/svg">
<path d="M18.7128 9.24646V6.81585C18.7128 4.66803 16.9716 2.92687 14.8238 2.92687H5.10138C2.95356 2.92687 1.2124 4.66803 1.2124 6.81585V17.0244C1.2124 19.1722 2.95356 20.9134 5.10138 20.9134H7.04587M6.07362 1.46851V4.38524M13.8516 8.27421H6.07362M11.9071 12.1632H6.07362M8.01811 16.0522H6.07362M13.8516 1.46851V4.38524M9.9626 20.9134L12.9384 20.065C13.0979 20.0196 13.2432 19.9341 13.3606 19.8168L18.2362 14.9412C18.8717 14.3057 18.8717 13.2753 18.2362 12.6398C17.6007 12.0043 16.5703 12.0043 15.9348 12.6398L11.0592 17.5154C10.9419 17.6327 10.8564 17.778 10.811 17.9376L9.9626 20.9134Z" stroke="white" stroke-width="1.26392" stroke-linecap="round"/>
</svg>
