<svg width="14" height="14" viewBox="0 0 14 14" fill="none" xmlns="http://www.w3.org/2000/svg">
<g clip-path="url(#clip0_1393_20469)">
<path d="M13.5615 6.56296H8.02001C7.77851 6.56296 7.58252 6.36697 7.58252 6.12547C7.58252 5.88398 7.77851 5.68799 8.02001 5.68799H13.5615C13.803 5.68799 13.999 5.88398 13.999 6.12547C13.999 6.36697 13.803 6.56296 13.5615 6.56296Z" fill="#17B7FF"/>
<path d="M11.3739 8.75039C11.2619 8.75039 11.1499 8.70777 11.0647 8.62211C10.8938 8.45111 10.8938 8.17405 11.0647 8.00316L12.943 6.12494L11.0647 4.24661C10.8938 4.07572 10.8938 3.79865 11.0647 3.62776C11.2357 3.45676 11.5128 3.45676 11.6836 3.62776L13.8711 5.81519C14.042 5.98609 14.042 6.26315 13.8711 6.43404L11.6836 8.62147C11.5979 8.70777 11.4859 8.75039 11.3739 8.75039Z" fill="#17B7FF"/>
<path d="M4.66607 14.0003C4.54121 14.0003 4.42276 13.9828 4.30442 13.946L0.793951 12.7765C0.316305 12.6097 -0.000488281 12.1646 -0.000488281 11.6671V1.1674C-0.000488281 0.523986 0.522765 0.000732422 1.16618 0.000732422C1.29093 0.000732422 1.40938 0.018249 1.52783 0.054991L5.03819 1.22454C5.51594 1.39137 5.83263 1.83644 5.83263 2.33396V12.8336C5.83263 13.477 5.30948 14.0003 4.66607 14.0003ZM1.16618 0.875705C1.00575 0.875705 0.874484 1.00697 0.874484 1.1674V11.6671C0.874484 11.7913 0.957901 11.9067 1.07689 11.9482L4.5709 13.1125C4.596 13.1206 4.62868 13.1253 4.66607 13.1253C4.82649 13.1253 4.95765 12.9941 4.95765 12.8336V2.33396C4.95765 2.20974 4.87424 2.09428 4.75525 2.05284L1.26124 0.888522C1.23614 0.880405 1.20345 0.875705 1.16618 0.875705Z" fill="#17B7FF"/>
<path d="M8.89486 4.66729C8.65336 4.66729 8.45737 4.4713 8.45737 4.2298V1.60488C8.45737 1.20297 8.13022 0.875705 7.7283 0.875705H1.166C0.924509 0.875705 0.728516 0.679712 0.728516 0.438219C0.728516 0.196725 0.924509 0.000732422 1.166 0.000732422H7.7283C8.6132 0.000732422 9.33234 0.719979 9.33234 1.60488V4.2298C9.33234 4.4713 9.13635 4.66729 8.89486 4.66729Z" fill="#17B7FF"/>
<path d="M7.72834 12.2503H5.39501C5.15351 12.2503 4.95752 12.0543 4.95752 11.8128C4.95752 11.5713 5.15351 11.3753 5.39501 11.3753H7.72834C8.13026 11.3753 8.45741 11.0481 8.45741 10.6461V8.02123C8.45741 7.77973 8.6534 7.58374 8.8949 7.58374C9.13639 7.58374 9.33238 7.77973 9.33238 8.02123V10.6461C9.33238 11.531 8.61324 12.2503 7.72834 12.2503Z" fill="#17B7FF"/>
</g>
<defs>
<clipPath id="clip0_1393_20469">
<rect width="14" height="14" fill="white"/>
</clipPath>
</defs>
</svg>
