<svg width="14" height="14" viewBox="0 0 14 14" fill="none" xmlns="http://www.w3.org/2000/svg">
<path d="M10.5 5.06187H10.2681V3.70563C10.2681 2.83886 9.92381 2.0076 9.31091 1.39471C8.69802 0.781819 7.86676 0.4375 7 0.4375C6.13324 0.4375 5.30198 0.781819 4.68909 1.39471C4.07619 2.0076 3.73187 2.83886 3.73187 3.70563V5.06187H3.5C3.03587 5.06187 2.59075 5.24625 2.26256 5.57444C1.93437 5.90263 1.75 6.34775 1.75 6.81187V11.8125C1.75 12.2766 1.93437 12.7217 2.26256 13.0499C2.59075 13.3781 3.03587 13.5625 3.5 13.5625H10.5C10.9641 13.5625 11.4092 13.3781 11.7374 13.0499C12.0656 12.7217 12.25 12.2766 12.25 11.8125V6.81187C12.25 6.34775 12.0656 5.90263 11.7374 5.57444C11.4092 5.24625 10.9641 5.06187 10.5 5.06187ZM4.60687 3.70563C4.60687 3.39136 4.66877 3.08016 4.78904 2.78982C4.90931 2.49947 5.08558 2.23565 5.30781 2.01343C5.53003 1.79121 5.79384 1.61493 6.08419 1.49467C6.37454 1.3744 6.68573 1.3125 7 1.3125C7.31427 1.3125 7.62546 1.3744 7.91581 1.49467C8.20616 1.61493 8.46997 1.79121 8.69219 2.01343C8.91442 2.23565 9.09069 2.49947 9.21096 2.78982C9.33122 3.08016 9.39312 3.39136 9.39312 3.70563V5.06187H4.60687V3.70563ZM11.375 11.8125C11.375 12.0446 11.2828 12.2671 11.1187 12.4312C10.9546 12.5953 10.7321 12.6875 10.5 12.6875H3.5C3.26794 12.6875 3.04538 12.5953 2.88128 12.4312C2.71719 12.2671 2.625 12.0446 2.625 11.8125V6.81187C2.625 6.57981 2.71719 6.35725 2.88128 6.19316C3.04538 6.02906 3.26794 5.93687 3.5 5.93687H10.5C10.7321 5.93687 10.9546 6.02906 11.1187 6.19316C11.2828 6.35725 11.375 6.57981 11.375 6.81187V11.8125Z" fill="#17B7FF"/>
<path d="M6.99851 7.84277C6.82877 7.84282 6.66291 7.89355 6.52219 7.98846C6.38147 8.08337 6.27229 8.21814 6.20865 8.3755C6.14501 8.53285 6.12981 8.70563 6.165 8.87168C6.20018 9.03773 6.28415 9.1895 6.40614 9.30752V10.3448C6.40614 10.4609 6.45223 10.5721 6.53428 10.6542C6.61632 10.7362 6.7276 10.7823 6.84364 10.7823H7.15339C7.26942 10.7823 7.3807 10.7362 7.46275 10.6542C7.54479 10.5721 7.59089 10.4609 7.59089 10.3448V9.30752C7.71287 9.1895 7.79684 9.03773 7.83203 8.87168C7.86721 8.70563 7.85201 8.53285 7.78837 8.3755C7.72473 8.21814 7.61556 8.08337 7.47483 7.98846C7.33411 7.89355 7.16825 7.84282 6.99851 7.84277Z" fill="#17B7FF"/>
</svg>
